<?xml version="1.0" encoding="UTF-8" standalone="no"?>
<svg
   xmlns:dc="http://purl.org/dc/elements/1.1/"
   xmlns:cc="http://creativecommons.org/ns#"
   xmlns:rdf="http://www.w3.org/1999/02/22-rdf-syntax-ns#"
   xmlns:svg="http://www.w3.org/2000/svg"
   xmlns="http://www.w3.org/2000/svg"
   xmlns:xlink="http://www.w3.org/1999/xlink"
   xmlns:sodipodi="http://sodipodi.sourceforge.net/DTD/sodipodi-0.dtd"
   xmlns:inkscape="http://www.inkscape.org/namespaces/inkscape"
   viewBox="0 0 500 500"
   version="1.1"
   id="svg862"
   sodipodi:docname="mattermost_icon.svg"
   inkscape:version="0.92.2 5c3e80d, 2017-08-06"
   inkscape:export-filename="/Users/colombo/Programming/SailfishOS/Projects/mattermost/icons/86x86/harbour-mattermost.png"
   inkscape:export-xdpi="16.511999"
   inkscape:export-ydpi="16.511999">
  <metadata
     id="metadata868">
    <rdf:RDF>
      <cc:Work
         rdf:about="">
        <dc:format>image/svg+xml</dc:format>
        <dc:type
           rdf:resource="http://purl.org/dc/dcmitype/StillImage" />
        <dc:title />
      </cc:Work>
    </rdf:RDF>
  </metadata>
  <defs
     id="defs866">
    <linearGradient
       id="linearGradient3526"
       inkscape:collect="always">
      <stop
         id="stop3522"
         offset="0"
         style="stop-color:#fdfeff;stop-opacity:1" />
      <stop
         style="stop-color:#d1ecf9;stop-opacity:1"
         offset="0.92754436"
         id="stop1646" />
      <stop
         id="stop3524"
         offset="1"
         style="stop-color:#8cd0f1;stop-opacity:1" />
    </linearGradient>
    <linearGradient
       inkscape:collect="always"
       id="linearGradient3499">
      <stop
         style="stop-color:#1472a0;stop-opacity:1;"
         offset="0"
         id="stop3495" />
      <stop
         style="stop-color:#5cbcea;stop-opacity:1"
         offset="1"
         id="stop3497" />
    </linearGradient>
    <linearGradient
       id="SVGID_1_"
       gradientUnits="userSpaceOnUse"
       x1="85.282898"
       y1="0.71719998"
       x2="12.8066"
       y2="73.193497"
       xlink:href="#linearGradient3499">
      <stop
         offset="0"
         style="stop-color:#3194ff;stop-opacity:1"
         id="stop3269" />
      <stop
         offset="1"
         style="stop-color:#00559c;stop-opacity:1"
         id="stop3271" />
    </linearGradient>
    <radialGradient
       inkscape:collect="always"
       xlink:href="#linearGradient3526"
       id="radialGradient1648"
       cx="306.42477"
       cy="83.614609"
       fx="306.42477"
       fy="83.614609"
       r="184.5312"
       gradientTransform="matrix(-1.2554982,-0.42128709,0.62610018,-1.8658719,638.78942,366.50788)"
       gradientUnits="userSpaceOnUse" />
  </defs>
  <sodipodi:namedview
     pagecolor="#ffffff"
     bordercolor="#666666"
     borderopacity="1"
     objecttolerance="10"
     gridtolerance="10"
     guidetolerance="10"
     inkscape:pageopacity="0"
     inkscape:pageshadow="2"
     inkscape:window-width="1440"
     inkscape:window-height="814"
     id="namedview864"
     showgrid="false"
     inkscape:zoom="0.86832713"
     inkscape:cx="62.073504"
     inkscape:cy="292.10781"
     inkscape:window-x="0"
     inkscape:window-y="0"
     inkscape:window-maximized="1"
     inkscape:current-layer="layer3"
     inkscape:snap-object-midpoints="true" />
  <g
     inkscape:groupmode="layer"
     id="layer1"
     inkscape:label="Layer 1"
     style="display:inline">
    <g
       id="g3300"
       transform="matrix(5.8154308,0,0,5.8154308,0.34364355,0.34364385)">
      <g
         display="none"
         id="Layer_2"
         style="display:none" />
      <path
         style="fill:url(#SVGID_1_);fill-opacity:1"
         inkscape:connector-curvature="0"
         d="M 85.7,1.723 C 85.7,0.937 85.063,0.3 84.277,0.3 c 0,0 -40.641,0 -41.276,0 C 19.417,0.3 0.3,19.417 0.3,43 0.3,66.582 19.417,85.7 43,85.7 66.583,85.7 85.7,66.582 85.7,43 c 0,-0.636 0,-41.277 0,-41.277 z"
         id="path3274" />
    </g>
  </g>
  <g
     inkscape:groupmode="layer"
     id="layer3"
     inkscape:label="Layer 2"
     style="display:inline">
    <path
       id="path3477"
       d="m 251.66342,63.837475 c 1.62319,0.03463 3.24639,0.09522 4.78414,0.173125 l -25.44993,30.738213 c -0.0597,0.0087 -0.12815,0.02598 -0.19648,0.03463 -65.24374,12.421657 -108.84779,66.436427 -108.84779,132.630497 0,35.97522 19.70896,78.33872 51.04509,103.09549 24.44184,19.32067 54.92366,31.94144 86.46483,31.94144 79.79266,0 136.81793,-59.39028 136.81793,-135.03693 0,-30.21885 -13.66044,-62.99126 -35.67603,-87.22001 l -1.39254,-41.021789 c 46.51725,33.889059 76.84529,89.176299 76.93926,151.630889 v 0.009 c 0,103.25997 -82.61188,186.9742 -184.5312,186.9742 -101.91078,0 -184.531202,-83.71423 -184.531202,-186.9742 0,-103.25997 82.620422,-186.974203 184.531202,-186.974203 z m 54.76134,17.563457 c 0.56384,-0.03463 1.12769,0.02597 1.67446,0.216404 2.57146,0.865622 3.2891,3.090269 3.35745,5.583259 l 3.28055,127.142455 c 0.64926,24.80871 -14.65998,59.24312 -51.59187,59.34701 -26.45801,0.0692 -54.40252,-18.0309 -54.40252,-52.04982 0.009,-12.7506 4.79268,-27.05933 16.44549,-41.64504 l 76.91362,-96.239779 c 0.98245,-1.229182 2.63128,-2.233302 4.32282,-2.354489 z"
       inkscape:connector-curvature="0"
       style="fill:url(#radialGradient1648);fill-opacity:1;stroke-width:0.85994762" />
  </g>
</svg>
